<svg width="76" height="34" viewBox="0 0 76 34" fill="none" xmlns="http://www.w3.org/2000/svg">
<g clip-path="url(#clip0_217_2493)">
<path d="M29.7314 33.9137C27.6897 33.3974 26.2485 31.5678 26.2219 29.4583C26.2081 28.3628 26.4123 27.6408 26.9721 26.8059C28.5981 24.3808 32.0536 24.0407 34.1101 26.1034C35.0826 27.0787 35.3576 27.8024 35.3593 29.3907C35.3605 30.6091 35.3238 30.812 34.9855 31.4559C34.2033 32.9445 32.7654 33.8911 31.1388 33.9883C30.6439 34.0178 30.0105 33.9845 29.7314 33.9137ZM31.6385 30.5891C32.3447 30.0932 32.4614 28.947 31.863 28.3836C30.8208 27.4021 29.2448 28.1373 29.4148 29.5258C29.5439 30.5804 30.7972 31.1797 31.6385 30.5891ZM61.4265 33.8743C60.0308 33.4781 58.8062 32.3287 58.2803 30.9214C57.9472 30.0301 58.0304 28.2698 58.4456 27.4213C58.9364 26.4185 59.622 25.7257 60.6028 25.2416C61.4085 24.8438 61.6256 24.7968 62.6547 24.7968C63.6831 24.7968 63.9013 24.844 64.7062 25.2409C66.3619 26.0572 67.2668 27.5262 67.2623 29.3907C67.2576 31.3354 66.2526 32.8728 64.4689 33.6637C63.6971 34.0059 62.2443 34.1065 61.4265 33.8743ZM63.6309 30.4152C64.0088 30.0767 64.0711 29.9317 64.0711 29.3907C64.0711 28.8497 64.0088 28.7047 63.6309 28.3662C63.3012 28.071 63.0563 27.972 62.6558 27.972C62.2552 27.972 62.0103 28.071 61.6807 28.3662C61.3028 28.7047 61.2405 28.8497 61.2405 29.3907C61.2405 29.9317 61.3028 30.0767 61.6807 30.4152C62.0103 30.7104 62.2552 30.8094 62.6558 30.8094C63.0563 30.8094 63.3012 30.7104 63.6309 30.4152ZM16.9622 25.8798V23.5132H16.484C15.4079 23.5132 14.938 22.1436 15.7387 21.3409L16.1327 20.946H20.3956C25.0778 20.946 25.2656 20.9172 25.5824 20.1506C25.7875 19.6542 25.6653 19.0306 25.2975 18.6968C25.0393 18.4624 24.6106 18.442 18.636 18.3787L12.2504 18.3112L11.8799 17.9396C11.3627 17.421 11.3628 16.6341 11.8799 16.1156L12.2506 15.744L23.1098 15.6764L33.9691 15.6089L34.2943 15.2298C34.7244 14.7285 34.7244 14.0572 34.2943 13.5559L33.969 13.1768L17.3146 13.1092L0.660087 13.0417L0.376619 12.7575C0.220714 12.6012 0.0610537 12.2334 0.0218216 11.9402C-0.037313 11.4982 0.0123914 11.3333 0.312449 10.9759L0.674407 10.5447L20.5419 10.5096L40.4094 10.4745L40.7801 10.1029C41.2974 9.58434 41.2974 8.79741 40.7801 8.27883L40.4095 7.90726L24.6084 7.83971C15.9179 7.80255 8.72541 7.71912 8.62518 7.65431C8.26812 7.42345 8.04074 6.63711 8.1953 6.16767C8.50418 5.2295 7.96087 5.2725 19.5039 5.2725C26.6841 5.2725 29.9884 5.22725 30.2103 5.12587C31.0272 4.75279 31.1837 3.53208 30.4853 2.98139C30.1436 2.7119 29.9777 2.7053 23.5443 2.7053C16.5252 2.7053 16.2311 2.68011 15.8947 2.05004C15.6416 1.57602 15.722 0.860324 16.0744 0.449642L16.3997 0.0705393L34.0014 0.0352697L51.603 0V12.0268V24.0536H52.4118H53.2205V15.0008V5.94808H59.0741H64.9276L65.2009 6.29636C65.4415 6.60295 67.6623 8.94061 72.7001 14.1902C73.5202 15.0448 74.5975 16.1696 75.0939 16.6898L75.9966 17.6356L75.9983 22.9389L76 28.2422L72.3944 28.2421L68.7888 28.2419L68.5579 27.4544C68.2342 26.3502 67.3763 25.1261 66.4219 24.407C63.8994 22.5062 60.5109 22.7437 58.2825 24.9775C57.5052 25.7567 56.7987 26.9685 56.646 27.7843L56.5602 28.2422H46.7506H36.941L36.8553 27.7842C36.5865 26.3478 35.0157 24.4528 33.4967 23.7325C30.0574 22.1015 25.9422 23.9572 24.8443 27.6342L24.6829 28.1747L20.8225 28.2105L16.9622 28.2464V25.8798ZM68.5653 13.0079C66.0974 10.4255 64.0159 8.26794 63.9398 8.21334C63.8637 8.15875 62.0273 8.11314 59.8589 8.11201L55.9163 8.10994V12.9066V17.7032H64.4843H73.0523L68.5653 13.0079Z" fill="#F88500"/>
</g>
<defs>
<clipPath id="clip0_217_2493">
<rect width="76" height="34" fill="white"/>
</clipPath>
</defs>
</svg>
