<svg width="50" height="50" viewBox="0 0 50 50" fill="none" xmlns="http://www.w3.org/2000/svg">
<path d="M1.53871 22.8766C2.31742 22.2323 3.07191 21.5238 3.8795 20.9533C7.67471 18.2703 11.6373 17.0319 15.6593 16.4535C18.8151 16.0011 21.8695 16.071 24.7779 16.8332C26.5056 17.2862 28.111 17.9973 29.5075 19.1307C29.5812 19.1908 29.6508 19.2561 29.7077 19.3042C29.3847 20.096 29.037 20.8615 28.7603 21.6451C28.0566 23.6347 28.1689 25.4427 28.7425 27.1323C29.0887 28.1554 29.5862 29.0491 30.1636 29.8753C30.1922 29.9176 30.2071 29.9722 30.2062 30.0317C26.2185 26.2878 21.5756 23.9551 15.977 23.6513C16.0423 23.6858 16.1035 23.7227 16.1713 23.7464C19.2578 24.8509 22.1637 26.3033 24.7579 28.3545C26.594 29.8057 28.2393 31.4911 29.4469 33.6979C29.6564 34.0835 29.8257 34.4997 30.0161 34.8993C30.1012 35.0781 30.0644 35.2221 29.897 35.3912C28.7669 36.5391 27.5502 37.55 26.2727 38.4025C24.6925 39.4542 23.0678 40.2093 21.3846 40.5547C18.526 41.1415 16.1281 40.389 14.0656 38.6752C12.4038 37.2951 11.1457 35.5012 10.3426 33.2535C9.90845 32.0387 9.52355 30.7896 9.13609 29.5433C8.68018 28.0781 8.17188 26.6578 7.28163 25.5387C6.19611 24.1751 4.7353 23.5177 3.09139 23.2139C2.59476 23.1214 2.08355 23.0693 1.57955 22.9993L1.53871 22.8766Z" fill="#F88500"/>
<path d="M32.9904 33.4587C36.7845 27.0577 39.6618 20.4121 40.918 13.2378C38.9024 20.3102 36.039 26.9793 31.4843 32.9452C31.2427 32.6156 31.02 32.3306 30.8138 32.0287C30.0907 30.9858 29.5249 29.7911 29.1338 28.4814C28.3607 25.8437 28.7959 23.1939 30.4533 20.5036C31.4879 18.8242 32.7197 17.3685 34.0433 16C35.3369 14.6658 36.6546 13.3629 37.908 11.9766C39.71 9.98362 41.0077 7.67893 41.5783 4.99151C41.5855 4.95579 41.5959 4.92029 41.6093 4.88561C41.6333 4.84553 41.6601 4.80742 41.6892 4.77179C41.9418 5.28394 42.221 5.76093 42.4276 6.28664C44.2482 10.9145 44.9133 16.0198 44.4229 21.6027C44.2364 23.6641 43.7958 25.715 42.9121 27.7132C41.5916 30.6982 39.5845 32.5204 36.9295 33.23C35.5996 33.5821 34.3174 33.5952 32.9904 33.4587Z" fill="#F88500"/>
</svg>
