<svg width="45" height="45" viewBox="0 0 45 45" fill="none" xmlns="http://www.w3.org/2000/svg">
<g clip-path="url(#clip0_217_2485)">
<path d="M21.4343 44.497C19.6757 43.4203 0.66493 30.8763 0.344462 30.5812C-0.0599123 30.2087 -0.113992 29.3477 0.235571 28.8475C0.512452 28.4513 1.35966 28.2601 1.79759 28.495C1.97077 28.5879 6.66804 31.6586 12.236 35.3187C17.8039 38.9788 22.4227 41.9734 22.5 41.9734C22.5773 41.9734 27.1961 38.9788 32.764 35.3187C38.332 31.6586 43.0293 28.5879 43.2024 28.495C43.6404 28.2601 44.4876 28.4513 44.7645 28.8475C45.114 29.3477 45.0599 30.2087 44.6556 30.5817C44.3356 30.877 25.3305 43.4168 23.5657 44.4971C23.1139 44.7737 22.6343 45 22.5 45C22.3657 45 21.8861 44.7737 21.4343 44.497V44.497ZM21.7112 37.349C20.8897 36.9021 20.7368 35.9129 21.3883 35.2599C22.2543 34.3919 24.0098 34.9559 24.0098 36.1022C24.0098 36.7054 23.7826 37.0843 23.2579 37.3563C22.7095 37.6405 22.2431 37.6383 21.7112 37.349V37.349ZM17.8784 34.7989C16.8078 34.324 16.4482 33.3356 17.0615 32.554C17.4547 32.053 17.9784 31.9699 18.7005 32.2939C19.7695 32.7737 20.0974 33.7342 19.4428 34.4685C19.0121 34.9516 18.4773 35.0646 17.8784 34.7989ZM26.0263 34.8622C25.2815 34.5609 24.9981 33.5777 25.464 32.911C25.7805 32.458 26.7797 32.0088 27.2642 32.1016C27.7712 32.1988 28.2371 32.8278 28.2371 33.4152C28.2371 33.9804 27.8053 34.5017 27.0882 34.802C26.5195 35.0401 26.4728 35.0428 26.0263 34.8622ZM13.517 31.9604C12.8321 31.5807 12.5357 31.1791 12.5357 30.631C12.5357 29.137 14.2211 28.8132 15.2399 30.1115C15.6598 30.6465 15.6374 31.1079 15.1643 31.6714C14.7445 32.1715 14.1013 32.2844 13.517 31.9604V31.9604ZM29.8357 31.6714C29.3626 31.1079 29.3403 30.6465 29.7601 30.1115C30.4637 29.215 31.7286 29.0329 32.2335 29.7555C32.5833 30.256 32.5292 31.1171 32.1247 31.4864C31.2418 32.2925 30.4133 32.3594 29.8357 31.6714V31.6714ZM21.8387 30.2979C20.6429 29.6017 0.340698 16.1739 0.193487 15.9818C-0.120749 15.5719 -0.0393737 14.6765 0.344462 14.3207C0.531293 14.1474 5.47383 10.8544 11.3279 7.0029C20.2488 1.13356 22.0571 6.96148e-05 22.5 3.35187e-09C22.943 -7.11213e-05 24.7488 1.13174 33.6721 7.00232C39.5262 10.8536 44.4687 14.1467 44.6556 14.3202C45.0394 14.6766 45.1207 15.5719 44.8065 15.9819C44.6452 16.1924 23.9548 29.8646 23.1191 30.3129C22.7404 30.516 22.2025 30.5097 21.8387 30.2979V30.2979ZM9.28972 29.1869C8.61415 28.8336 8.30838 28.3884 8.30838 27.7581C8.30838 26.6582 9.43969 26.1852 10.4997 26.8418C12.0793 27.8204 10.9313 30.0452 9.28972 29.1869ZM34.4646 29.257C34.2777 29.1817 34.0127 28.8845 33.8757 28.5965C33.6649 28.1535 33.6561 28.0014 33.8181 27.6093C34.2289 26.6152 35.719 26.2005 36.373 26.8983C37.0371 27.6069 36.733 28.6895 35.7365 29.1635C35.1513 29.4418 34.9586 29.456 34.4646 29.257ZM4.73135 26.2232C4.45193 26.0438 4.17695 25.694 4.0772 25.3911C3.93152 24.9486 3.94853 24.7939 4.18802 24.3829C4.57288 23.7224 5.22095 23.5443 5.96019 23.8959C6.99926 24.3901 7.31853 25.4437 6.6465 26.1608C6.20343 26.6335 5.41059 26.6594 4.73135 26.2232V26.2232ZM38.3535 26.1608C37.6815 25.4437 38.0008 24.3901 39.0398 23.8959C39.7791 23.5443 40.4271 23.7224 40.812 24.3829C41.052 24.7948 41.0687 24.9481 40.9218 25.3941C40.5736 26.4518 39.052 26.906 38.3535 26.1608V26.1608ZM0.725695 23.5855C0.21034 23.2958 0.00476834 22.9182 0.00476834 22.2613C0.00476834 21.1531 1.32606 20.6959 2.25781 21.4818C3.131 22.2182 2.77119 23.5926 1.66549 23.7443C1.34606 23.7881 0.974379 23.7253 0.725695 23.5855ZM42.9292 23.6615C42.5013 23.4887 42.2777 23.0557 42.2777 22.3997C42.2777 21.9979 42.3875 21.7809 42.7422 21.4818C43.6843 20.6872 44.9953 21.1532 44.9953 22.2825C44.9953 22.9335 44.7794 23.3075 44.2434 23.5854C43.7523 23.8399 43.4188 23.8593 42.9292 23.6615Z" fill="#F88500"/>
</g>
<defs>
<clipPath id="clip0_217_2485">
<rect width="45" height="45" fill="white"/>
</clipPath>
</defs>
</svg>
