<svg width="62" height="40" viewBox="0 0 62 40" fill="none" xmlns="http://www.w3.org/2000/svg">
<path d="M13.0674 39.4144C13.3612 37.9699 13.6347 36.6164 13.9082 35.2527C14.1311 34.1517 14.3236 33.0507 14.5465 31.9497C14.82 30.6467 15.0733 29.3436 15.4177 28.0608C15.6912 27.0305 16.4612 26.3234 17.2818 25.6871C18.7811 24.5154 20.5033 23.7679 22.2053 22.9699C23.1576 22.5255 24.0491 21.9699 25.0014 21.5356C25.5079 21.3032 25.6801 20.98 25.6396 20.4851C25.6092 20.1214 25.7206 19.9497 26.1157 19.9598C26.3893 19.9598 26.6729 19.879 27.0376 19.8285C26.9769 19.3436 26.9262 18.8689 26.8452 18.384C26.835 18.3133 26.7135 18.2426 26.6425 18.2022C25.9942 17.8083 25.7105 17.182 25.5282 16.4952C25.4269 16.1214 25.3965 15.7275 25.3458 15.3436C25.3154 15.1315 25.2648 15.0103 25.0014 14.9699C24.4644 14.8891 24.2213 14.475 24.1301 13.7679C24.0491 13.1517 23.9174 12.5457 23.7958 11.9396C23.6945 11.4042 23.8059 10.9295 24.2314 10.5861C24.4644 10.3941 24.4644 10.2123 24.3631 9.98C23.9376 9.03051 23.6945 8.06081 23.735 7.00021C23.7755 5.86889 23.7857 4.74768 24.12 3.65677C24.2922 3.07091 24.4948 2.46485 25.0621 2.14162C25.3965 1.9497 25.8118 1.88909 26.2069 1.75778C26.0955 1.22243 26.4501 0.929497 26.9262 0.687073C27.8076 0.242628 28.7599 0.0810114 29.7223 0.0204053C30.8164 -0.0503018 31.9004 0.06081 32.9641 0.384042C34.5445 0.868891 35.8716 1.71738 36.368 3.36384C36.6618 4.33354 36.753 5.38404 36.7935 6.39415C36.8442 7.56586 36.7327 8.73758 36.6922 9.9093C36.6922 10.0103 36.7327 10.1921 36.7935 10.2123C37.604 10.4548 37.6344 11.1214 37.5027 11.7275C37.3203 12.5861 37.0265 13.4346 36.7125 14.2628C36.5099 14.7881 36.2161 14.9497 35.7197 15.0002C35.6285 15.576 35.5677 16.1618 35.4563 16.7275C35.3347 17.3133 35.0713 17.8184 34.5344 18.1618C34.4432 18.2224 34.3723 18.3941 34.3723 18.5154C34.3723 18.8891 34.3925 19.2729 34.4432 19.6467C34.4533 19.7376 34.5546 19.8386 34.6458 19.879C34.7674 19.9396 34.9092 19.9497 35.0409 19.9598C35.6994 20.0103 35.6994 19.9598 35.6791 20.7275C35.669 21.1719 35.8412 21.4649 36.2161 21.6871C37.371 22.3537 38.5968 22.8487 39.8935 23.2022C41.4739 23.6265 42.9834 24.2022 44.2193 25.3335C44.7259 25.7982 45.0703 26.3436 45.1513 27.0608C45.2121 27.5962 45.4147 28.1214 45.5465 28.6568C45.8301 29.7679 46.1138 30.879 46.3772 31.9901C46.671 33.2022 46.9647 34.4043 47.2281 35.6265C47.4004 36.4144 47.5118 37.2123 47.6435 38.0002C47.6942 38.3336 47.7246 38.677 47.7752 39.0204C47.8259 39.3335 47.6942 39.4245 47.3902 39.4245C45.1919 39.4144 42.9834 39.4245 40.785 39.4245C31.7079 39.4245 22.6308 39.4245 13.5537 39.4245C13.422 39.4144 13.2801 39.4144 13.0674 39.4144Z" fill="#F88500"/>
<path d="M55.951 17.0709C55.5761 16.5962 55.1912 16.1214 54.8163 15.6366C54.7555 15.6871 54.6846 15.7275 54.6238 15.778C54.8062 16.2325 54.9784 16.6871 55.1912 17.1214C55.3127 17.3639 55.3735 17.4952 55.0594 17.6063C54.2287 17.879 53.398 18.1719 52.5673 18.4548C52.4761 18.4851 52.3849 18.5154 52.2938 18.5457C52 18.6568 51.5238 18.6972 51.4529 18.8891C51.3212 19.2527 51.4023 19.7073 51.4326 20.1214C51.4326 20.2022 51.5441 20.3033 51.6251 20.3538C52.3647 20.7376 52.9523 21.2527 53.2967 22.0305C53.4588 22.4144 53.8134 22.6164 54.1983 22.778C54.8467 23.0507 55.4647 23.4043 56.113 23.677C56.7614 23.9497 57.4199 24.2022 58.0987 24.4144C58.666 24.5962 59.3144 24.6164 59.8108 24.8992C60.8644 25.5154 61.3405 26.5053 61.3608 27.7376C61.381 29.0002 61.4519 30.2628 61.5026 31.5154C61.5532 32.5962 61.6039 33.6871 61.6546 34.7982C57.2477 34.7982 52.932 34.7982 48.6467 34.7982C48.2415 33.0911 47.8464 31.4043 47.431 29.7174C47.2183 28.8689 46.9751 28.0204 46.7421 27.182C46.5902 26.6164 46.5294 26.0204 46.2761 25.5053C45.6885 24.3033 44.6451 23.5558 43.4902 22.9295C43.1255 22.7376 42.7506 22.5659 42.3657 22.4043C42.1732 22.3235 42.1732 22.2224 42.2542 22.0608C42.6392 21.3033 43.166 20.6871 43.9764 20.3437C43.9866 20.3437 43.9967 20.3336 44.0068 20.3235C44.4019 19.9194 44.1081 19.4144 44.1892 18.9598C44.1993 18.879 43.9663 18.7073 43.8143 18.6568C42.7 18.2729 41.5755 17.8992 40.4509 17.5255C40.3699 17.4952 40.3091 17.4447 40.2787 17.4245C40.5117 16.8588 40.7245 16.3133 40.9474 15.7679C40.917 15.7477 40.8866 15.7174 40.8562 15.6972C40.4307 16.1113 40.0052 16.5154 39.5797 16.9295C39.5594 16.9093 39.5392 16.8891 39.5088 16.8689C39.7621 16.3538 40.0052 15.8285 40.2787 15.3235C40.8258 14.3032 41.0284 13.1921 41.1905 12.0608C41.3728 10.7275 41.5045 9.38406 41.7274 8.06083C41.8692 7.18204 42.0617 6.31335 42.3353 5.46487C42.9735 3.51537 44.5134 2.58608 46.3774 2.07093C48.2719 1.54567 49.9637 2.10123 51.534 3.11133C51.9594 3.38406 52.3343 3.7881 52.6281 4.21234C53.1954 5.02042 53.5196 5.92951 53.6614 6.91941C53.783 7.7679 53.9653 8.59618 54.097 9.44467C54.2085 10.1315 54.2996 10.8285 54.3706 11.5154C54.5225 12.98 54.867 14.3942 55.5559 15.7174C55.7585 16.1012 55.9307 16.4952 56.113 16.879C56.0523 16.98 56.0016 17.0305 55.951 17.0709Z" fill="#F88500"/>
<path d="M0.14044 33.9598C-0.0317826 32.9194 -0.0419133 31.9093 0.089786 30.8992C0.191093 30.1315 0.221485 29.3537 0.373446 28.6063C0.71789 26.9194 1.19403 25.2426 2.70351 24.1921C3.46331 23.6669 4.36495 23.3335 5.23619 22.98C6.26952 22.5558 7.35351 22.2325 8.38684 21.7982C9.34926 21.3941 10.2914 20.9093 11.2234 20.4244C11.3754 20.3436 11.5071 20.1214 11.5476 19.9396C11.6996 19.3133 11.8212 18.677 11.9326 18.0406C11.9529 17.9396 11.9123 17.7982 11.8414 17.7073C11.1627 16.8184 10.727 15.7982 10.3522 14.7477C10.3218 14.6669 10.3421 14.576 10.3117 14.4952C10.1698 14.1315 10.2813 13.6265 9.66331 13.5356C9.49109 13.5053 9.2986 13.1719 9.23782 12.9497C9.13651 12.5659 9.12638 12.1517 9.07573 11.7578C9.03521 11.3537 8.99468 10.9497 8.96429 10.5558C8.9339 10.2123 9.04534 9.9396 9.34926 9.74768C9.4303 9.69718 9.50122 9.53556 9.50122 9.42445C9.4607 8.64667 9.37965 7.86889 9.34926 7.08101C9.27834 5.36384 9.98749 4.08101 11.497 3.21233C12.196 2.81839 12.8342 2.32344 13.5029 1.86889C13.5738 1.81839 13.6447 1.78809 13.7662 1.70728C13.7764 1.9396 13.7865 2.13152 13.8068 2.38405C14.3741 1.82849 14.8908 1.31334 15.4581 0.757782C15.5189 1.26283 15.5695 1.66687 15.6202 2.06081C15.6607 2.06081 15.7012 2.06081 15.7417 2.06081C15.7721 1.9699 15.8025 1.87899 15.8633 1.71738C16.1976 1.85879 16.5522 1.9699 16.8561 2.15172C17.7881 2.68708 18.7303 3.20223 19.6117 3.81839C20.5133 4.45475 20.9287 5.42445 20.9692 6.49516C20.9996 7.42445 20.9185 8.35374 20.8679 9.28304C20.8577 9.52546 20.8983 9.69718 21.1414 9.81839C21.4453 9.98 21.5872 10.283 21.577 10.6164C21.5466 11.3436 21.4757 12.081 21.3947 12.7982C21.3542 13.182 21.1211 13.4143 20.6551 13.384C20.5437 13.8083 20.4221 14.2426 20.3107 14.677C20.0372 15.7174 19.5306 16.6568 18.8215 17.4548C18.4973 17.8184 18.4669 18.1719 18.5479 18.5861C18.629 19.0002 18.7202 19.4244 18.781 19.8386C18.8316 20.1719 18.943 20.4042 19.2976 20.5558C19.9561 20.8386 20.5944 21.1921 21.2326 21.5154C21.2934 21.5457 21.344 21.5962 21.4048 21.6366C20.331 22.1618 19.2571 22.6467 18.2238 23.2022C16.9979 23.8588 15.8836 24.6669 15.0022 25.7679C14.3741 26.5659 13.9587 27.4548 13.7662 28.4649C13.5738 29.5053 13.3002 30.5356 13.0774 31.576C12.9355 32.2325 12.8038 32.8891 12.6721 33.5457C12.6215 33.7881 12.6012 34.0103 12.2365 34.0103C8.2754 34.0002 4.31429 34.0002 0.353185 34.0002C0.2924 33.98 0.231616 33.9699 0.14044 33.9598Z" fill="#F88500"/>
</svg>
