<svg width="45" height="45" viewBox="0 0 45 45" fill="none" xmlns="http://www.w3.org/2000/svg">
<path d="M22.5 0C18.1392 0 13.9094 1.23679 10.2672 3.57655C9.86933 3.83217 9.75621 4.35856 10.0143 4.75244C10.2726 5.14631 10.8043 5.2582 11.2022 5.00275C14.5652 2.84231 18.4719 1.70027 22.5 1.70027C33.9594 1.70027 43.2824 10.9294 43.2824 22.2735C43.2824 33.6176 33.9594 42.8467 22.5 42.8467C11.0406 42.8467 1.71756 33.6176 1.71756 22.2735C1.71756 16.4887 4.19933 10.938 8.52645 7.04478C8.87739 6.72895 8.90323 6.19134 8.58428 5.84384C8.26523 5.49634 7.72216 5.47067 7.37112 5.78659C2.68673 10.0014 0 16.0106 0 22.2735C0 34.5553 10.0934 44.547 22.5 44.547C34.9066 44.547 45 34.5553 45 22.2735C45 9.99176 34.9066 0 22.5 0Z" fill="#F88500"/>
<path d="M37.7854 12.1707C37.5218 11.7806 36.9883 11.6756 36.5942 11.9368C36.2 12.1978 36.0942 12.7259 36.358 13.116C38.1912 15.8289 39.1602 18.9956 39.1602 22.2739C39.1602 31.368 31.6864 38.7665 22.4999 38.7665C13.3134 38.7665 5.83963 31.368 5.83963 22.2739C5.83963 13.1799 13.3134 5.78135 22.4999 5.78135C26.8822 5.78135 31.0203 7.45204 34.1518 10.4857C34.4908 10.8142 35.0346 10.8083 35.3661 10.4727C35.698 10.1372 35.692 9.59891 35.353 9.27055C31.8986 5.92404 27.3341 4.08109 22.4999 4.08109C12.3663 4.08109 4.12207 12.2423 4.12207 22.2739C4.12207 32.3055 12.3663 40.4668 22.4999 40.4668C32.6335 40.4668 40.8778 32.3055 40.8778 22.2739C40.8778 18.6579 39.8084 15.1641 37.7854 12.1707Z" fill="#F88500"/>
<path d="M22.4995 9.29419C19.6695 9.29419 16.9746 10.1728 14.7063 11.8351C14.325 12.1145 14.2449 12.6468 14.527 13.0241C14.8094 13.4018 15.3471 13.4811 15.7281 13.2016C17.6986 11.7577 20.0401 10.9945 22.4995 10.9945C28.7817 10.9945 33.8926 16.054 33.8926 22.2729C33.8926 27.4599 30.3475 31.9597 25.2714 33.2152C24.8112 33.3291 24.5315 33.7906 24.6464 34.2462C24.744 34.6326 25.0943 34.8904 25.479 34.8904C25.5479 34.8904 25.6181 34.8822 25.688 34.865C31.53 33.4196 35.6102 28.2416 35.6102 22.2729C35.6102 15.1163 29.7288 9.29419 22.4995 9.29419Z" fill="#F88500"/>
<path d="M15.2933 31.0089C12.6329 28.8553 11.1072 25.6713 11.1072 22.2733C11.1072 19.9218 11.8306 17.6688 13.1994 15.7579C13.4738 15.3749 13.3825 14.8442 12.9956 14.5727C12.6088 14.301 12.0727 14.3915 11.7984 14.7745C10.2225 16.9744 9.38965 19.5675 9.38965 22.2733C9.38965 26.1835 11.1451 29.8472 14.2061 32.3251C14.3656 32.4542 14.5581 32.5171 14.7492 32.5171C14.9979 32.5171 15.2447 32.4107 15.4145 32.2052C15.7147 31.8416 15.6604 31.306 15.2933 31.0089Z" fill="#F88500"/>
<path d="M29.9425 21.4241C29.4681 21.4241 29.0837 21.8046 29.0837 22.2743C29.0837 25.8682 26.1303 28.792 22.4998 28.792C18.8693 28.792 15.9158 25.8682 15.9158 22.2743C15.9158 18.6803 18.8693 15.7566 22.4998 15.7566C22.9742 15.7566 23.3586 15.3761 23.3586 14.9064C23.3586 14.4369 22.9742 14.0563 22.4998 14.0563C17.9223 14.0563 14.1982 17.7428 14.1982 22.2743C14.1982 26.8057 17.9223 30.4922 22.4998 30.4922C27.0773 30.4922 30.8013 26.8057 30.8013 22.2743C30.8013 21.8046 30.4169 21.4241 29.9425 21.4241Z" fill="#F88500"/>
<path d="M22.5001 18.8165C20.5746 18.8165 19.0078 20.3675 19.0078 22.2737C19.0078 24.1799 20.5746 25.7309 22.5001 25.7309C24.4257 25.7309 25.9925 24.1799 25.9925 22.2737C25.9925 20.3675 24.4257 18.8165 22.5001 18.8165ZM22.5001 24.0306C21.5215 24.0306 20.7254 23.2425 20.7254 22.2737C20.7254 21.3049 21.5215 20.5168 22.5001 20.5168C23.4788 20.5168 24.2749 21.3049 24.2749 22.2737C24.2749 23.2425 23.4788 24.0306 22.5001 24.0306Z" fill="#F88500"/>
</svg>
